<svg xmlns="http://www.w3.org/2000/svg" xmlns:xlink="http://www.w3.org/1999/xlink" class="railroad-diagram" width="1092" height="170" viewBox="0 0 1092 170">
<defs>
<style type="text/css"><![CDATA[
path {
stroke-width: 3;
stroke: black;
fill: rgba(0,0,0,0);
}
text {
font: bold 14px monospace;
text-anchor: middle;
}
text.diagram-text {
font-size: 12px;
}
a {
fill: blue;
}
text.diagram-arrow {
font-size: 16px;
}
text.label {
text-anchor: start;
}
text.comment {
font: italic 12px monospace;
}
rect {
stroke-width: 3;
stroke: black;
fill: #BCBCBC;
}
path.diagram-text {
stroke-width: 3;
stroke: black;
fill: #BCBCBC;
cursor: help;
}
]]></style>
</defs>
<g transform="translate(.5 .5)">
<path d="M 20 30 v 20 m 10 -20 v 20 m -10 -10 h 20.5"></path>
<path d="M40 40h10"></path>
<g>
<path d="M50 40h0"></path>
<path d="M1042 40h0"></path>
<g class="terminal">
<path d="M50 40h0"></path>
<path d="M166 40h0"></path>
<rect x="50" y="29" width="116" height="22" rx="10" ry="10"></rect>
<text x="108" y="44">"INTERFACES"</text>
</g>
<path d="M166 40h10"></path>
<path d="M176 40h10"></path>
<g class="non-terminal">
<path d="M186 40h0"></path>
<path d="M246 40h0"></path>
<rect x="186" y="29" width="60" height="22"></rect>
<a xlink:href="reuse_field.svg"><text x="216" y="44">Field</text>
</a>
</g>
<path d="M246 40h10"></path>
<g>
<path d="M256 40h0"></path>
<path d="M626 40h0"></path>
<path d="M256 40a10 10 0 0 0 10 -10v0a10 10 0 0 1 10 -10"></path>
<g>
<path d="M276 20h330"></path>
</g>
<path d="M606 20a10 10 0 0 1 10 10v0a10 10 0 0 0 10 10"></path>
<path d="M256 40h20"></path>
<g>
<path d="M276 40h0"></path>
<path d="M606 40h0"></path>
<path d="M276 40h20"></path>
<g>
<path d="M296 40h0"></path>
<path d="M560 40h26"></path>
<g class="terminal">
<path d="M296 40h0"></path>
<path d="M460 40h0"></path>
<rect x="296" y="29" width="164" height="22" rx="10" ry="10"></rect>
<text x="378" y="44">"ABSTRACT METHODS"</text>
</g>
<path d="M460 40h10"></path>
<path d="M470 40h10"></path>
<g>
<path d="M480 40h0"></path>
<path d="M560 40h0"></path>
<path d="M480 40h10"></path>
<g class="non-terminal">
<path d="M490 40h0"></path>
<path d="M550 40h0"></path>
<rect x="490" y="29" width="60" height="22"></rect>
<a xlink:href="reuse_field.svg"><text x="520" y="44">Field</text>
</a>
</g>
<path d="M550 40h10"></path>
<path d="M490 40a10 10 0 0 0 -10 10v0a10 10 0 0 0 10 10"></path>
<g>
<path d="M490 60h60"></path>
</g>
<path d="M550 60a10 10 0 0 0 10 -10v0a10 10 0 0 0 -10 -10"></path>
</g>
</g>
<path d="M586 40h20"></path>
<path d="M276 40a10 10 0 0 1 10 10v19a10 10 0 0 0 10 10"></path>
<g class="terminal">
<path d="M296 79h0"></path>
<path d="M492 79h94"></path>
<rect x="296" y="68" width="196" height="22" rx="10" ry="10"></rect>
<text x="394" y="83">"ALL METHODS ABSTRACT"</text>
</g>
<path d="M586 79a10 10 0 0 0 10 -10v-19a10 10 0 0 1 10 -10"></path>
<path d="M276 40a10 10 0 0 1 10 10v49a10 10 0 0 0 10 10"></path>
<g class="terminal">
<path d="M296 109h0"></path>
<path d="M468 109h118"></path>
<rect x="296" y="98" width="172" height="22" rx="10" ry="10"></rect>
<text x="382" y="113">"ALL METHODS FINAL"</text>
</g>
<path d="M586 109a10 10 0 0 0 10 -10v-49a10 10 0 0 1 10 -10"></path>
<path d="M276 40a10 10 0 0 1 10 10v79a10 10 0 0 0 10 10"></path>
<g>
<path d="M296 139h0"></path>
<path d="M586 139h0"></path>
<g>
<path d="M296 139h0"></path>
<path d="M362 139h0"></path>
<text x="329" y="144" class="comment">v740sp02</text>
</g>
<path d="M362 139h10"></path>
<path d="M372 139h10"></path>
<g class="terminal">
<path d="M382 139h0"></path>
<path d="M586 139h0"></path>
<rect x="382" y="128" width="204" height="22" rx="10" ry="10"></rect>
<text x="484" y="143">"PARTIALLY IMPLEMENTED"</text>
</g>
</g>
<path d="M586 139a10 10 0 0 0 10 -10v-79a10 10 0 0 1 10 -10"></path>
</g>
<path d="M606 40h20"></path>
</g>
<g>
<path d="M626 40h0"></path>
<path d="M1042 40h0"></path>
<path d="M626 40a10 10 0 0 0 10 -10v0a10 10 0 0 1 10 -10"></path>
<g>
<path d="M646 20h376"></path>
</g>
<path d="M1022 20a10 10 0 0 1 10 10v0a10 10 0 0 0 10 10"></path>
<path d="M626 40h20"></path>
<g>
<path d="M646 40h0"></path>
<path d="M1022 40h0"></path>
<g class="terminal">
<path d="M646 40h0"></path>
<path d="M770 40h0"></path>
<rect x="646" y="29" width="124" height="22" rx="10" ry="10"></rect>
<text x="708" y="44">"DATA VALUES"</text>
</g>
<path d="M770 40h10"></path>
<path d="M780 40h10"></path>
<g>
<path d="M790 40h0"></path>
<path d="M1022 40h0"></path>
<path d="M790 40h10"></path>
<g>
<path d="M800 40h0"></path>
<path d="M1012 40h0"></path>
<g class="non-terminal">
<path d="M800 40h0"></path>
<path d="M860 40h0"></path>
<rect x="800" y="29" width="60" height="22"></rect>
<a xlink:href="reuse_field.svg"><text x="830" y="44">Field</text>
</a>
</g>
<path d="M860 40h10"></path>
<path d="M870 40h10"></path>
<g class="terminal">
<path d="M880 40h0"></path>
<path d="M924 40h0"></path>
<rect x="880" y="29" width="44" height="22" rx="10" ry="10"></rect>
<text x="902" y="44">"="</text>
</g>
<path d="M924 40h10"></path>
<path d="M934 40h10"></path>
<g class="non-terminal">
<path d="M944 40h0"></path>
<path d="M1012 40h0"></path>
<rect x="944" y="29" width="68" height="22"></rect>
<a xlink:href="reuse_source.svg"><text x="978" y="44">Source</text>
</a>
</g>
</g>
<path d="M1012 40h10"></path>
<path d="M800 40a10 10 0 0 0 -10 10v0a10 10 0 0 0 10 10"></path>
<g>
<path d="M800 60h212"></path>
</g>
<path d="M1012 60a10 10 0 0 0 10 -10v0a10 10 0 0 0 -10 -10"></path>
</g>
</g>
<path d="M1022 40h20"></path>
</g>
</g>
<path d="M1042 40h10"></path>
<path d="M 1052 40 h 20 m -10 -10 v 20 m 10 -20 v 20"></path>
</g>
</svg>
