<svg xmlns="http://www.w3.org/2000/svg" xmlns:xlink="http://www.w3.org/1999/xlink" class="railroad-diagram" width="1280" height="664" viewBox="0 0 1280 664">
<defs>
<style type="text/css"><![CDATA[
path {
stroke-width: 3;
stroke: black;
fill: rgba(0,0,0,0);
}
text {
font: bold 14px monospace;
text-anchor: middle;
}
text.diagram-text {
font-size: 12px;
}
a {
fill: blue;
}
text.diagram-arrow {
font-size: 16px;
}
text.label {
text-anchor: start;
}
text.comment {
font: italic 12px monospace;
}
rect {
stroke-width: 3;
stroke: black;
fill: #BCBCBC;
}
path.diagram-text {
stroke-width: 3;
stroke: black;
fill: #BCBCBC;
cursor: help;
}
]]></style>
</defs>
<g transform="translate(.5 .5)">
<path d="M 20 30 v 20 m 10 -20 v 20 m -10 -10 h 20.5"></path>
<path d="M40 40h10"></path>
<g>
<path d="M50 40h0"></path>
<path d="M1230 40h0"></path>
<g>
<path d="M50 40h0"></path>
<path d="M230 40h0"></path>
<path d="M50 40h20"></path>
<g class="terminal">
<path d="M70 40h0"></path>
<path d="M210 40h0"></path>
<rect x="70" y="29" width="140" height="22" rx="10" ry="10"></rect>
<text x="140" y="44">"CLASS-METHODS"</text>
</g>
<path d="M210 40h20"></path>
<path d="M50 40a10 10 0 0 1 10 10v10a10 10 0 0 0 10 10"></path>
<g class="terminal">
<path d="M70 70h0"></path>
<path d="M162 70h48"></path>
<rect x="70" y="59" width="92" height="22" rx="10" ry="10"></rect>
<text x="116" y="74">"METHODS"</text>
</g>
<path d="M210 70a10 10 0 0 0 10 -10v-10a10 10 0 0 1 10 -10"></path>
</g>
<path d="M230 40h10"></path>
<g class="non-terminal">
<path d="M240 40h0"></path>
<path d="M300 40h0"></path>
<rect x="240" y="29" width="60" height="22"></rect>
<a xlink:href="reuse_field.svg"><text x="270" y="44">Field</text>
</a>
</g>
<path d="M300 40h10"></path>
<g>
<path d="M310 40h0"></path>
<path d="M1230 40h0"></path>
<path d="M310 40h20"></path>
<g>
<path d="M330 40h0"></path>
<path d="M1024 40h186"></path>
<g class="terminal">
<path d="M330 40h0"></path>
<path d="M438 40h0"></path>
<rect x="330" y="29" width="108" height="22" rx="10" ry="10"></rect>
<text x="384" y="44">"FOR EVENT"</text>
</g>
<path d="M438 40h10"></path>
<path d="M448 40h10"></path>
<g class="non-terminal">
<path d="M458 40h0"></path>
<path d="M518 40h0"></path>
<rect x="458" y="29" width="60" height="22"></rect>
<a xlink:href="reuse_field.svg"><text x="488" y="44">Field</text>
</a>
</g>
<path d="M518 40h10"></path>
<path d="M528 40h10"></path>
<g class="terminal">
<path d="M538 40h0"></path>
<path d="M590 40h0"></path>
<rect x="538" y="29" width="52" height="22" rx="10" ry="10"></rect>
<text x="564" y="44">"OF"</text>
</g>
<path d="M590 40h10"></path>
<path d="M600 40h10"></path>
<g class="non-terminal">
<path d="M610 40h0"></path>
<path d="M670 40h0"></path>
<rect x="610" y="29" width="60" height="22"></rect>
<a xlink:href="reuse_field.svg"><text x="640" y="44">Field</text>
</a>
</g>
<path d="M670 40h10"></path>
<g>
<path d="M680 40h0"></path>
<path d="M1024 40h0"></path>
<path d="M680 40a10 10 0 0 0 10 -10v0a10 10 0 0 1 10 -10"></path>
<g>
<path d="M700 20h304"></path>
</g>
<path d="M1004 20a10 10 0 0 1 10 10v0a10 10 0 0 0 10 10"></path>
<path d="M680 40h20"></path>
<g>
<path d="M700 40h0"></path>
<path d="M1004 40h0"></path>
<g class="terminal">
<path d="M700 40h0"></path>
<path d="M808 40h0"></path>
<rect x="700" y="29" width="108" height="22" rx="10" ry="10"></rect>
<text x="754" y="44">"IMPORTING"</text>
</g>
<path d="M808 40h10"></path>
<path d="M818 40h10"></path>
<g>
<path d="M828 40h0"></path>
<path d="M1004 40h0"></path>
<path d="M828 40h10"></path>
<g class="terminal">
<path d="M838 40h0"></path>
<path d="M994 40h0"></path>
<rect x="838" y="29" width="156" height="22" rx="10" ry="10"></rect>
<text x="916" y="44">^!?(\/\w+\/)?\w+$</text>
</g>
<path d="M994 40h10"></path>
<path d="M838 40a10 10 0 0 0 -10 10v0a10 10 0 0 0 10 10"></path>
<g>
<path d="M838 60h156"></path>
</g>
<path d="M994 60a10 10 0 0 0 10 -10v0a10 10 0 0 0 -10 -10"></path>
</g>
</g>
<path d="M1004 40h20"></path>
</g>
</g>
<path d="M1210 40h20"></path>
<path d="M310 40a10 10 0 0 1 10 10v28a10 10 0 0 0 10 10"></path>
<g>
<path d="M330 88h0"></path>
<path d="M330 88h10"></path>
<g>
<path d="M340 88h0"></path>
<path d="M646 88h554"></path>
<path d="M340 88a10 10 0 0 0 10 -10v0a10 10 0 0 1 10 -10"></path>
<g>
<path d="M360 68h266"></path>
</g>
<path d="M626 68a10 10 0 0 1 10 10v0a10 10 0 0 0 10 10"></path>
<path d="M340 88h20"></path>
<g>
<path d="M360 88h0"></path>
<path d="M626 88h0"></path>
<path d="M360 88h20"></path>
<g class="terminal">
<path d="M380 88h0"></path>
<path d="M480 88h126"></path>
<rect x="380" y="77" width="100" height="22" rx="10" ry="10"></rect>
<text x="430" y="92">"ABSTRACT"</text>
</g>
<path d="M606 88h20"></path>
<path d="M360 88a10 10 0 0 1 10 10v10a10 10 0 0 0 10 10"></path>
<g class="terminal">
<path d="M380 118h0"></path>
<path d="M456 118h150"></path>
<rect x="380" y="107" width="76" height="22" rx="10" ry="10"></rect>
<text x="418" y="122">"FINAL"</text>
</g>
<path d="M606 118a10 10 0 0 0 10 -10v-10a10 10 0 0 1 10 -10"></path>
<path d="M360 88a10 10 0 0 1 10 10v40a10 10 0 0 0 10 10"></path>
<g class="terminal">
<path d="M380 148h0"></path>
<path d="M504 148h102"></path>
<rect x="380" y="137" width="124" height="22" rx="10" ry="10"></rect>
<text x="442" y="152">"FOR TESTING"</text>
</g>
<path d="M606 148a10 10 0 0 0 10 -10v-40a10 10 0 0 1 10 -10"></path>
<path d="M360 88a10 10 0 0 1 10 10v70a10 10 0 0 0 10 10"></path>
<g>
<path d="M380 178h0"></path>
<path d="M606 178h0"></path>
<g class="terminal">
<path d="M380 178h0"></path>
<path d="M472 178h0"></path>
<rect x="380" y="167" width="92" height="22" rx="10" ry="10"></rect>
<text x="426" y="182">"DEFAULT"</text>
</g>
<path d="M472 178h10"></path>
<g>
<path d="M482 178h0"></path>
<path d="M606 178h0"></path>
<path d="M482 178h20"></path>
<g class="terminal">
<path d="M502 178h0"></path>
<path d="M570 178h16"></path>
<rect x="502" y="167" width="68" height="22" rx="10" ry="10"></rect>
<text x="536" y="182">"FAIL"</text>
</g>
<path d="M586 178h20"></path>
<path d="M482 178a10 10 0 0 1 10 10v10a10 10 0 0 0 10 10"></path>
<g class="terminal">
<path d="M502 208h0"></path>
<path d="M586 208h0"></path>
<rect x="502" y="197" width="84" height="22" rx="10" ry="10"></rect>
<text x="544" y="212">"IGNORE"</text>
</g>
<path d="M586 208a10 10 0 0 0 10 -10v-10a10 10 0 0 1 10 -10"></path>
</g>
</g>
<path d="M606 178a10 10 0 0 0 10 -10v-70a10 10 0 0 1 10 -10"></path>
</g>
<path d="M626 88h20"></path>
</g>
<path d="M1200 88a10 10 0 0 1 10 10v119a10 10 0 0 1 -10 10h-860a10 10 0 0 0 -10 10v16a10 10 0 0 0 10 10"></path>
<g>
<path d="M340 263h0"></path>
<path d="M1200 263h0"></path>
<path d="M340 263a10 10 0 0 0 10 -10v-8a10 10 0 0 1 10 -10"></path>
<g>
<path d="M360 235h820"></path>
</g>
<path d="M1180 235a10 10 0 0 1 10 10v8a10 10 0 0 0 10 10"></path>
<path d="M340 263h20"></path>
<g>
<path d="M360 263h0"></path>
<path d="M1180 263h0"></path>
<g class="terminal">
<path d="M360 263h0"></path>
<path d="M468 263h0"></path>
<rect x="360" y="252" width="108" height="22" rx="10" ry="10"></rect>
<text x="414" y="267">"IMPORTING"</text>
</g>
<path d="M468 263h10"></path>
<path d="M478 263h10"></path>
<g>
<path d="M488 263h0"></path>
<path d="M766 263h0"></path>
<path d="M488 263h10"></path>
<g>
<path d="M498 263h0"></path>
<path d="M756 263h0"></path>
<g class="non-terminal">
<path d="M498 263h0"></path>
<path d="M606 263h0"></path>
<rect x="498" y="252" width="108" height="22"></rect>
<a xlink:href="reuse_methodparam.svg"><text x="552" y="267">MethodParam</text>
</a>
</g>
<path d="M606 263h10"></path>
<g>
<path d="M616 263h0"></path>
<path d="M756 263h0"></path>
<path d="M616 263a10 10 0 0 0 10 -10v0a10 10 0 0 1 10 -10"></path>
<g>
<path d="M636 243h100"></path>
</g>
<path d="M736 243a10 10 0 0 1 10 10v0a10 10 0 0 0 10 10"></path>
<path d="M616 263h20"></path>
<g class="terminal">
<path d="M636 263h0"></path>
<path d="M736 263h0"></path>
<rect x="636" y="252" width="100" height="22" rx="10" ry="10"></rect>
<text x="686" y="267">"OPTIONAL"</text>
</g>
<path d="M736 263h20"></path>
</g>
</g>
<path d="M756 263h10"></path>
<path d="M498 263a10 10 0 0 0 -10 10v0a10 10 0 0 0 10 10"></path>
<g>
<path d="M498 283h258"></path>
</g>
<path d="M756 283a10 10 0 0 0 10 -10v0a10 10 0 0 0 -10 -10"></path>
</g>
<path d="M766 263h10"></path>
<g>
<path d="M776 263h0"></path>
<path d="M1180 263h0"></path>
<path d="M776 263a10 10 0 0 0 10 -10v0a10 10 0 0 1 10 -10"></path>
<g>
<path d="M796 243h364"></path>
</g>
<path d="M1160 243a10 10 0 0 1 10 10v0a10 10 0 0 0 10 10"></path>
<path d="M776 263h20"></path>
<g>
<path d="M796 263h0"></path>
<path d="M1160 263h0"></path>
<g class="terminal">
<path d="M796 263h0"></path>
<path d="M984 263h0"></path>
<rect x="796" y="252" width="188" height="22" rx="10" ry="10"></rect>
<text x="890" y="267">"PREFERRED PARAMETER"</text>
</g>
<path d="M984 263h10"></path>
<path d="M994 263h10"></path>
<g class="terminal">
<path d="M1004 263h0"></path>
<path d="M1160 263h0"></path>
<rect x="1004" y="252" width="156" height="22" rx="10" ry="10"></rect>
<text x="1082" y="267">^!?(\/\w+\/)?\w+$</text>
</g>
</g>
<path d="M1160 263h20"></path>
</g>
</g>
<path d="M1180 263h20"></path>
</g>
<path d="M1200 263a10 10 0 0 1 10 10v8a10 10 0 0 1 -10 10h-860a10 10 0 0 0 -10 10v8a10 10 0 0 0 10 10"></path>
<g>
<path d="M340 319h0"></path>
<path d="M636 319h564"></path>
<path d="M340 319a10 10 0 0 0 10 -10v0a10 10 0 0 1 10 -10"></path>
<g>
<path d="M360 299h256"></path>
</g>
<path d="M616 299a10 10 0 0 1 10 10v0a10 10 0 0 0 10 10"></path>
<path d="M340 319h20"></path>
<g>
<path d="M360 319h0"></path>
<path d="M616 319h0"></path>
<g class="terminal">
<path d="M360 319h0"></path>
<path d="M468 319h0"></path>
<rect x="360" y="308" width="108" height="22" rx="10" ry="10"></rect>
<text x="414" y="323">"EXPORTING"</text>
</g>
<path d="M468 319h10"></path>
<path d="M478 319h10"></path>
<g>
<path d="M488 319h0"></path>
<path d="M616 319h0"></path>
<path d="M488 319h10"></path>
<g class="non-terminal">
<path d="M498 319h0"></path>
<path d="M606 319h0"></path>
<rect x="498" y="308" width="108" height="22"></rect>
<a xlink:href="reuse_methodparam.svg"><text x="552" y="323">MethodParam</text>
</a>
</g>
<path d="M606 319h10"></path>
<path d="M498 319a10 10 0 0 0 -10 10v0a10 10 0 0 0 10 10"></path>
<g>
<path d="M498 339h108"></path>
</g>
<path d="M606 339a10 10 0 0 0 10 -10v0a10 10 0 0 0 -10 -10"></path>
</g>
</g>
<path d="M616 319h20"></path>
</g>
<path d="M1200 319a10 10 0 0 1 10 10v8a10 10 0 0 1 -10 10h-860a10 10 0 0 0 -10 10v16a10 10 0 0 0 10 10"></path>
<g>
<path d="M340 383h0"></path>
<path d="M778 383h422"></path>
<path d="M340 383a10 10 0 0 0 10 -10v-8a10 10 0 0 1 10 -10"></path>
<g>
<path d="M360 355h398"></path>
</g>
<path d="M758 355a10 10 0 0 1 10 10v8a10 10 0 0 0 10 10"></path>
<path d="M340 383h20"></path>
<g>
<path d="M360 383h0"></path>
<path d="M758 383h0"></path>
<g class="terminal">
<path d="M360 383h0"></path>
<path d="M460 383h0"></path>
<rect x="360" y="372" width="100" height="22" rx="10" ry="10"></rect>
<text x="410" y="387">"CHANGING"</text>
</g>
<path d="M460 383h10"></path>
<path d="M470 383h10"></path>
<g>
<path d="M480 383h0"></path>
<path d="M758 383h0"></path>
<path d="M480 383h10"></path>
<g>
<path d="M490 383h0"></path>
<path d="M748 383h0"></path>
<g class="non-terminal">
<path d="M490 383h0"></path>
<path d="M598 383h0"></path>
<rect x="490" y="372" width="108" height="22"></rect>
<a xlink:href="reuse_methodparam.svg"><text x="544" y="387">MethodParam</text>
</a>
</g>
<path d="M598 383h10"></path>
<g>
<path d="M608 383h0"></path>
<path d="M748 383h0"></path>
<path d="M608 383a10 10 0 0 0 10 -10v0a10 10 0 0 1 10 -10"></path>
<g>
<path d="M628 363h100"></path>
</g>
<path d="M728 363a10 10 0 0 1 10 10v0a10 10 0 0 0 10 10"></path>
<path d="M608 383h20"></path>
<g class="terminal">
<path d="M628 383h0"></path>
<path d="M728 383h0"></path>
<rect x="628" y="372" width="100" height="22" rx="10" ry="10"></rect>
<text x="678" y="387">"OPTIONAL"</text>
</g>
<path d="M728 383h20"></path>
</g>
</g>
<path d="M748 383h10"></path>
<path d="M490 383a10 10 0 0 0 -10 10v0a10 10 0 0 0 10 10"></path>
<g>
<path d="M490 403h258"></path>
</g>
<path d="M748 403a10 10 0 0 0 10 -10v0a10 10 0 0 0 -10 -10"></path>
</g>
</g>
<path d="M758 383h20"></path>
</g>
<path d="M1200 383a10 10 0 0 1 10 10v8a10 10 0 0 1 -10 10h-860a10 10 0 0 0 -10 10v8a10 10 0 0 0 10 10"></path>
<g>
<path d="M340 439h0"></path>
<path d="M616 439h584"></path>
<path d="M340 439a10 10 0 0 0 10 -10v0a10 10 0 0 1 10 -10"></path>
<g>
<path d="M360 419h236"></path>
</g>
<path d="M596 419a10 10 0 0 1 10 10v0a10 10 0 0 0 10 10"></path>
<path d="M340 439h20"></path>
<g>
<path d="M360 439h0"></path>
<path d="M596 439h0"></path>
<g class="terminal">
<path d="M360 439h0"></path>
<path d="M468 439h0"></path>
<rect x="360" y="428" width="108" height="22" rx="10" ry="10"></rect>
<text x="414" y="443">"RETURNING"</text>
</g>
<path d="M468 439h10"></path>
<path d="M478 439h10"></path>
<g class="non-terminal">
<path d="M488 439h0"></path>
<path d="M596 439h0"></path>
<rect x="488" y="428" width="108" height="22"></rect>
<a xlink:href="reuse_methodparam.svg"><text x="542" y="443">MethodParam</text>
</a>
</g>
</g>
<path d="M596 439h20"></path>
</g>
<path d="M1200 439a10 10 0 0 1 10 10v0a10 10 0 0 1 -10 10h-860a10 10 0 0 0 -10 10v8a10 10 0 0 0 10 10"></path>
<g>
<path d="M340 487h0"></path>
<path d="M994 487h206"></path>
<path d="M340 487a10 10 0 0 0 10 -10v0a10 10 0 0 1 10 -10"></path>
<g>
<path d="M360 467h614"></path>
</g>
<path d="M974 467a10 10 0 0 1 10 10v0a10 10 0 0 0 10 10"></path>
<path d="M340 487h20"></path>
<g>
<path d="M360 487h0"></path>
<path d="M974 487h0"></path>
<path d="M360 487h20"></path>
<g>
<path d="M380 487h0"></path>
<path d="M954 487h0"></path>
<g class="terminal">
<path d="M380 487h0"></path>
<path d="M472 487h0"></path>
<rect x="380" y="476" width="92" height="22" rx="10" ry="10"></rect>
<text x="426" y="491">"RAISING"</text>
</g>
<path d="M472 487h10"></path>
<path d="M482 487h10"></path>
<g>
<path d="M492 487h0"></path>
<path d="M954 487h0"></path>
<path d="M492 487h10"></path>
<g>
<path d="M502 487h0"></path>
<path d="M944 487h0"></path>
<path d="M502 487h20"></path>
<g>
<path d="M522 487h0"></path>
<path d="M924 487h0"></path>
<g class="terminal">
<path d="M522 487h0"></path>
<path d="M630 487h0"></path>
<rect x="522" y="476" width="108" height="22" rx="10" ry="10"></rect>
<text x="576" y="491">"RESUMABLE"</text>
</g>
<path d="M630 487h10"></path>
<path d="M640 487h10"></path>
<g class="terminal">
<path d="M650 487h0"></path>
<path d="M702 487h0"></path>
<rect x="650" y="476" width="52" height="22" rx="10" ry="10"></rect>
<text x="676" y="491">!"("</text>
</g>
<path d="M702 487h10"></path>
<path d="M712 487h10"></path>
<g class="non-terminal">
<path d="M722 487h0"></path>
<path d="M814 487h0"></path>
<rect x="722" y="476" width="92" height="22"></rect>
<a xlink:href="reuse_classname.svg"><text x="768" y="491">ClassName</text>
</a>
</g>
<path d="M814 487h10"></path>
<g>
<path d="M824 487h0"></path>
<path d="M924 487h0"></path>
<path d="M824 487h20"></path>
<g class="terminal">
<path d="M844 487h0"></path>
<path d="M896 487h8"></path>
<rect x="844" y="476" width="52" height="22" rx="10" ry="10"></rect>
<text x="870" y="491">!")"</text>
</g>
<path d="M904 487h20"></path>
<path d="M824 487a10 10 0 0 1 10 10v10a10 10 0 0 0 10 10"></path>
<g class="terminal">
<path d="M844 517h0"></path>
<path d="M904 517h0"></path>
<rect x="844" y="506" width="60" height="22" rx="10" ry="10"></rect>
<text x="874" y="521">!") "</text>
</g>
<path d="M904 517a10 10 0 0 0 10 -10v-10a10 10 0 0 1 10 -10"></path>
</g>
</g>
<path d="M924 487h20"></path>
<path d="M502 487a10 10 0 0 1 10 10v40a10 10 0 0 0 10 10"></path>
<g class="non-terminal">
<path d="M522 547h0"></path>
<path d="M614 547h310"></path>
<rect x="522" y="536" width="92" height="22"></rect>
<a xlink:href="reuse_classname.svg"><text x="568" y="551">ClassName</text>
</a>
</g>
<path d="M924 547a10 10 0 0 0 10 -10v-40a10 10 0 0 1 10 -10"></path>
</g>
<path d="M944 487h10"></path>
<path d="M502 487a10 10 0 0 0 -10 10v59a10 10 0 0 0 10 10"></path>
<g>
<path d="M502 566h442"></path>
</g>
<path d="M944 566a10 10 0 0 0 10 -10v-59a10 10 0 0 0 -10 -10"></path>
</g>
</g>
<path d="M954 487h20"></path>
<path d="M360 487a10 10 0 0 1 10 10v78a10 10 0 0 0 10 10"></path>
<g>
<path d="M380 585h0"></path>
<path d="M604 585h350"></path>
<g class="terminal">
<path d="M380 585h0"></path>
<path d="M496 585h0"></path>
<rect x="380" y="574" width="116" height="22" rx="10" ry="10"></rect>
<text x="438" y="589">"EXCEPTIONS"</text>
</g>
<path d="M496 585h10"></path>
<path d="M506 585h10"></path>
<g>
<path d="M516 585h0"></path>
<path d="M604 585h0"></path>
<path d="M516 585h10"></path>
<g class="terminal">
<path d="M526 585h0"></path>
<path d="M594 585h0"></path>
<rect x="526" y="574" width="68" height="22" rx="10" ry="10"></rect>
<text x="560" y="589">^\w+?$</text>
</g>
<path d="M594 585h10"></path>
<path d="M526 585a10 10 0 0 0 -10 10v0a10 10 0 0 0 10 10"></path>
<g>
<path d="M526 605h68"></path>
</g>
<path d="M594 605a10 10 0 0 0 10 -10v0a10 10 0 0 0 -10 -10"></path>
</g>
</g>
<path d="M954 585a10 10 0 0 0 10 -10v-78a10 10 0 0 1 10 -10"></path>
</g>
<path d="M974 487h20"></path>
</g>
<path d="M1200 487h10"></path>
<path d="M1210 487h0"></path>
</g>
<path d="M1210 487a10 10 0 0 0 10 -10v-427a10 10 0 0 1 10 -10"></path>
<path d="M310 40a10 10 0 0 1 10 10v573a10 10 0 0 0 10 10"></path>
<g>
<path d="M330 633h0"></path>
<path d="M588 633h622"></path>
<g>
<path d="M330 633h0"></path>
<path d="M446 633h0"></path>
<path d="M330 633a10 10 0 0 0 10 -10v0a10 10 0 0 1 10 -10"></path>
<g>
<path d="M350 613h76"></path>
</g>
<path d="M426 613a10 10 0 0 1 10 10v0a10 10 0 0 0 10 10"></path>
<path d="M330 633h20"></path>
<g class="terminal">
<path d="M350 633h0"></path>
<path d="M426 633h0"></path>
<rect x="350" y="622" width="76" height="22" rx="10" ry="10"></rect>
<text x="388" y="637">"FINAL"</text>
</g>
<path d="M426 633h20"></path>
</g>
<path d="M446 633h10"></path>
<g class="terminal">
<path d="M456 633h0"></path>
<path d="M588 633h0"></path>
<rect x="456" y="622" width="132" height="22" rx="10" ry="10"></rect>
<text x="522" y="637">"REDEFINITION"</text>
</g>
</g>
<path d="M1210 633a10 10 0 0 0 10 -10v-573a10 10 0 0 1 10 -10"></path>
</g>
</g>
<path d="M1230 40h10"></path>
<path d="M 1240 40 h 20 m -10 -10 v 20 m 10 -20 v 20"></path>
</g>
</svg>
