<svg xmlns="http://www.w3.org/2000/svg" xmlns:xlink="http://www.w3.org/1999/xlink" class="railroad-diagram" width="1702" height="170" viewBox="0 0 1702 170">
<defs>
<style type="text/css"><![CDATA[
path {
stroke-width: 3;
stroke: black;
fill: rgba(0,0,0,0);
}
text {
font: bold 14px monospace;
text-anchor: middle;
}
text.diagram-text {
font-size: 12px;
}
a {
fill: blue;
}
text.diagram-arrow {
font-size: 16px;
}
text.label {
text-anchor: start;
}
text.comment {
font: italic 12px monospace;
}
rect {
stroke-width: 3;
stroke: black;
fill: #BCBCBC;
}
path.diagram-text {
stroke-width: 3;
stroke: black;
fill: #BCBCBC;
cursor: help;
}
]]></style>
</defs>
<g transform="translate(.5 .5)">
<path d="M 20 21 v 20 m 10 -20 v 20 m -10 -10 h 20.5"></path>
<path d="M40 31h10"></path>
<g>
<path d="M50 31h0"></path>
<path d="M1652 31h0"></path>
<g class="terminal">
<path d="M50 31h0"></path>
<path d="M126 31h0"></path>
<rect x="50" y="20" width="76" height="22" rx="10" ry="10"></rect>
<text x="88" y="35">"RAISE"</text>
</g>
<path d="M126 31h10"></path>
<g>
<path d="M136 31h0"></path>
<path d="M1652 31h0"></path>
<path d="M136 31h20"></path>
<g class="non-terminal">
<path d="M156 31h0"></path>
<path d="M216 31h1416"></path>
<rect x="156" y="20" width="60" height="22"></rect>
<a xlink:href="reuse_field.svg"><text x="186" y="35">Field</text>
</a>
</g>
<path d="M1632 31h20"></path>
<path d="M136 31a10 10 0 0 1 10 10v19a10 10 0 0 0 10 10"></path>
<g>
<path d="M156 70h0"></path>
<path d="M1632 70h0"></path>
<g>
<path d="M156 70h0"></path>
<path d="M304 70h0"></path>
<path d="M156 70a10 10 0 0 0 10 -10v0a10 10 0 0 1 10 -10"></path>
<g>
<path d="M176 50h108"></path>
</g>
<path d="M284 50a10 10 0 0 1 10 10v0a10 10 0 0 0 10 10"></path>
<path d="M156 70h20"></path>
<g class="terminal">
<path d="M176 70h0"></path>
<path d="M284 70h0"></path>
<rect x="176" y="59" width="108" height="22" rx="10" ry="10"></rect>
<text x="230" y="74">"RESUMABLE"</text>
</g>
<path d="M284 70h20"></path>
</g>
<path d="M304 70h10"></path>
<g class="terminal">
<path d="M314 70h0"></path>
<path d="M422 70h0"></path>
<rect x="314" y="59" width="108" height="22" rx="10" ry="10"></rect>
<text x="368" y="74">"EXCEPTION"</text>
</g>
<path d="M422 70h10"></path>
<g>
<path d="M432 70h0"></path>
<path d="M540 70h0"></path>
<path d="M432 70a10 10 0 0 0 10 -10v0a10 10 0 0 1 10 -10"></path>
<g>
<path d="M452 50h68"></path>
</g>
<path d="M520 50a10 10 0 0 1 10 10v0a10 10 0 0 0 10 10"></path>
<path d="M432 70h20"></path>
<g class="terminal">
<path d="M452 70h0"></path>
<path d="M520 70h0"></path>
<rect x="452" y="59" width="68" height="22" rx="10" ry="10"></rect>
<text x="486" y="74">"TYPE"</text>
</g>
<path d="M520 70h20"></path>
</g>
<path d="M540 70h10"></path>
<g class="non-terminal">
<path d="M550 70h0"></path>
<path d="M618 70h0"></path>
<rect x="550" y="59" width="68" height="22"></rect>
<a xlink:href="reuse_source.svg"><text x="584" y="74">Source</text>
</a>
</g>
<path d="M618 70h10"></path>
<g>
<path d="M628 70h0"></path>
<path d="M1632 70h0"></path>
<path d="M628 70a10 10 0 0 0 10 -10v0a10 10 0 0 1 10 -10"></path>
<g>
<path d="M648 50h964"></path>
</g>
<path d="M1612 50a10 10 0 0 1 10 10v0a10 10 0 0 0 10 10"></path>
<path d="M628 70h20"></path>
<g>
<path d="M648 70h0"></path>
<path d="M1612 70h0"></path>
<path d="M648 70h20"></path>
<g>
<path d="M668 70h0"></path>
<path d="M928 70h664"></path>
<g class="terminal">
<path d="M668 70h0"></path>
<path d="M776 70h0"></path>
<rect x="668" y="59" width="108" height="22" rx="10" ry="10"></rect>
<text x="722" y="74">"EXPORTING"</text>
</g>
<path d="M776 70h10"></path>
<path d="M786 70h10"></path>
<g class="non-terminal">
<path d="M796 70h0"></path>
<path d="M928 70h0"></path>
<rect x="796" y="59" width="132" height="22"></rect>
<a xlink:href="reuse_parameterlists.svg"><text x="862" y="74">ParameterListS</text>
</a>
</g>
</g>
<path d="M1592 70h20"></path>
<path d="M648 70a10 10 0 0 1 10 10v19a10 10 0 0 0 10 10"></path>
<g>
<path d="M668 109h0"></path>
<path d="M1592 109h0"></path>
<g>
<path d="M668 109h0"></path>
<path d="M706 109h0"></path>
<text x="687" y="114" class="comment">v750</text>
</g>
<path d="M706 109h10"></path>
<path d="M716 109h10"></path>
<g>
<path d="M726 109h0"></path>
<path d="M1592 109h0"></path>
<g class="terminal">
<path d="M726 109h0"></path>
<path d="M818 109h0"></path>
<rect x="726" y="98" width="92" height="22" rx="10" ry="10"></rect>
<text x="772" y="113">"MESSAGE"</text>
</g>
<path d="M818 109h10"></path>
<g>
<path d="M828 109h0"></path>
<path d="M1376 109h0"></path>
<path d="M828 109h20"></path>
<g>
<path d="M848 109h0"></path>
<path d="M1356 109h0"></path>
<g class="terminal">
<path d="M848 109h0"></path>
<path d="M900 109h0"></path>
<rect x="848" y="98" width="52" height="22" rx="10" ry="10"></rect>
<text x="874" y="113">"ID"</text>
</g>
<path d="M900 109h10"></path>
<path d="M910 109h10"></path>
<g class="non-terminal">
<path d="M920 109h0"></path>
<path d="M988 109h0"></path>
<rect x="920" y="98" width="68" height="22"></rect>
<a xlink:href="reuse_source.svg"><text x="954" y="113">Source</text>
</a>
</g>
<path d="M988 109h10"></path>
<path d="M998 109h10"></path>
<g class="terminal">
<path d="M1008 109h0"></path>
<path d="M1076 109h0"></path>
<rect x="1008" y="98" width="68" height="22" rx="10" ry="10"></rect>
<text x="1042" y="113">"TYPE"</text>
</g>
<path d="M1076 109h10"></path>
<path d="M1086 109h10"></path>
<g class="non-terminal">
<path d="M1096 109h0"></path>
<path d="M1164 109h0"></path>
<rect x="1096" y="98" width="68" height="22"></rect>
<a xlink:href="reuse_source.svg"><text x="1130" y="113">Source</text>
</a>
</g>
<path d="M1164 109h10"></path>
<path d="M1174 109h10"></path>
<g class="terminal">
<path d="M1184 109h0"></path>
<path d="M1268 109h0"></path>
<rect x="1184" y="98" width="84" height="22" rx="10" ry="10"></rect>
<text x="1226" y="113">"NUMBER"</text>
</g>
<path d="M1268 109h10"></path>
<path d="M1278 109h10"></path>
<g class="non-terminal">
<path d="M1288 109h0"></path>
<path d="M1356 109h0"></path>
<rect x="1288" y="98" width="68" height="22"></rect>
<a xlink:href="reuse_source.svg"><text x="1322" y="113">Source</text>
</a>
</g>
</g>
<path d="M1356 109h20"></path>
<path d="M828 109a10 10 0 0 1 10 10v10a10 10 0 0 0 10 10"></path>
<g>
<path d="M848 139h0"></path>
<path d="M1116 139h240"></path>
<g class="non-terminal">
<path d="M848 139h0"></path>
<path d="M908 139h0"></path>
<rect x="848" y="128" width="60" height="22"></rect>
<a xlink:href="reuse_field.svg"><text x="878" y="143">Field</text>
</a>
</g>
<path d="M908 139h10"></path>
<path d="M918 139h10"></path>
<g class="terminal">
<path d="M928 139h0"></path>
<path d="M972 139h0"></path>
<rect x="928" y="128" width="44" height="22" rx="10" ry="10"></rect>
<text x="950" y="143">"("</text>
</g>
<path d="M972 139h10"></path>
<path d="M982 139h10"></path>
<g class="non-terminal">
<path d="M992 139h0"></path>
<path d="M1052 139h0"></path>
<rect x="992" y="128" width="60" height="22"></rect>
<a xlink:href="reuse_field.svg"><text x="1022" y="143">Field</text>
</a>
</g>
<path d="M1052 139h10"></path>
<path d="M1062 139h10"></path>
<g class="terminal">
<path d="M1072 139h0"></path>
<path d="M1116 139h0"></path>
<rect x="1072" y="128" width="44" height="22" rx="10" ry="10"></rect>
<text x="1094" y="143">")"</text>
</g>
</g>
<path d="M1356 139a10 10 0 0 0 10 -10v-10a10 10 0 0 1 10 -10"></path>
</g>
<g>
<path d="M1376 109h0"></path>
<path d="M1592 109h0"></path>
<path d="M1376 109a10 10 0 0 0 10 -10v0a10 10 0 0 1 10 -10"></path>
<g>
<path d="M1396 89h176"></path>
</g>
<path d="M1572 89a10 10 0 0 1 10 10v0a10 10 0 0 0 10 10"></path>
<path d="M1376 109h20"></path>
<g>
<path d="M1396 109h0"></path>
<path d="M1572 109h0"></path>
<g class="terminal">
<path d="M1396 109h0"></path>
<path d="M1464 109h0"></path>
<rect x="1396" y="98" width="68" height="22" rx="10" ry="10"></rect>
<text x="1430" y="113">"WITH"</text>
</g>
<path d="M1464 109h10"></path>
<path d="M1474 109h10"></path>
<g>
<path d="M1484 109h0"></path>
<path d="M1572 109h0"></path>
<path d="M1484 109h10"></path>
<g class="non-terminal">
<path d="M1494 109h0"></path>
<path d="M1562 109h0"></path>
<rect x="1494" y="98" width="68" height="22"></rect>
<a xlink:href="reuse_source.svg"><text x="1528" y="113">Source</text>
</a>
</g>
<path d="M1562 109h10"></path>
<path d="M1494 109a10 10 0 0 0 -10 10v0a10 10 0 0 0 10 10"></path>
<g>
<path d="M1494 129h68"></path>
</g>
<path d="M1562 129a10 10 0 0 0 10 -10v0a10 10 0 0 0 -10 -10"></path>
</g>
</g>
<path d="M1572 109h20"></path>
</g>
</g>
</g>
<path d="M1592 109a10 10 0 0 0 10 -10v-19a10 10 0 0 1 10 -10"></path>
</g>
<path d="M1612 70h20"></path>
</g>
</g>
<path d="M1632 70a10 10 0 0 0 10 -10v-19a10 10 0 0 1 10 -10"></path>
</g>
</g>
<path d="M1652 31h10"></path>
<path d="M 1662 31 h 20 m -10 -10 v 20 m 10 -20 v 20"></path>
</g>
</svg>
