<svg xmlns="http://www.w3.org/2000/svg" xmlns:xlink="http://www.w3.org/1999/xlink" class="railroad-diagram" width="1126" height="401" viewBox="0 0 1126 401">
<defs>
<style type="text/css"><![CDATA[
path {
stroke-width: 3;
stroke: black;
fill: rgba(0,0,0,0);
}
text {
font: bold 14px monospace;
text-anchor: middle;
}
text.diagram-text {
font-size: 12px;
}
a {
fill: blue;
}
text.diagram-arrow {
font-size: 16px;
}
text.label {
text-anchor: start;
}
text.comment {
font: italic 12px monospace;
}
rect {
stroke-width: 3;
stroke: black;
fill: #BCBCBC;
}
path.diagram-text {
stroke-width: 3;
stroke: black;
fill: #BCBCBC;
cursor: help;
}
]]></style>
</defs>
<g transform="translate(.5 .5)">
<path d="M 20 21 v 20 m 0 -10 h 20.5"></path>
<g>
<path d="M40 31h0"></path>
<path d="M1086 31h0"></path>
<path d="M40 31h20"></path>
<g>
<path d="M60 31h0"></path>
<path d="M1066 31h0"></path>
<g class="terminal">
<path d="M60 31h0"></path>
<path d="M128 31h0"></path>
<rect x="60" y="20" width="68" height="22" rx="10" ry="10"></rect>
<text x="94" y="35">"TYPE"</text>
</g>
<path d="M128 31h10"></path>
<g>
<path d="M138 31h0"></path>
<path d="M1066 31h0"></path>
<path d="M138 31h20"></path>
<g>
<path d="M158 31h0"></path>
<path d="M384 31h662"></path>
<g>
<path d="M158 31h0"></path>
<path d="M298 31h0"></path>
<path d="M158 31h20"></path>
<g class="terminal">
<path d="M178 31h0"></path>
<path d="M278 31h0"></path>
<rect x="178" y="20" width="100" height="22" rx="10" ry="10"></rect>
<text x="228" y="35">"STANDARD"</text>
</g>
<path d="M278 31h20"></path>
<path d="M158 31a10 10 0 0 1 10 10v10a10 10 0 0 0 10 10"></path>
<g class="terminal">
<path d="M178 61h0"></path>
<path d="M262 61h16"></path>
<rect x="178" y="50" width="84" height="22" rx="10" ry="10"></rect>
<text x="220" y="65">"HASHED"</text>
</g>
<path d="M278 61a10 10 0 0 0 10 -10v-10a10 10 0 0 1 10 -10"></path>
<path d="M158 31a10 10 0 0 1 10 10v40a10 10 0 0 0 10 10"></path>
<g class="terminal">
<path d="M178 91h0"></path>
<path d="M254 91h24"></path>
<rect x="178" y="80" width="76" height="22" rx="10" ry="10"></rect>
<text x="216" y="95">"INDEX"</text>
</g>
<path d="M278 91a10 10 0 0 0 10 -10v-40a10 10 0 0 1 10 -10"></path>
<path d="M158 31a10 10 0 0 1 10 10v70a10 10 0 0 0 10 10"></path>
<g class="terminal">
<path d="M178 121h0"></path>
<path d="M262 121h16"></path>
<rect x="178" y="110" width="84" height="22" rx="10" ry="10"></rect>
<text x="220" y="125">"SORTED"</text>
</g>
<path d="M278 121a10 10 0 0 0 10 -10v-70a10 10 0 0 1 10 -10"></path>
<path d="M158 31a10 10 0 0 1 10 10v100a10 10 0 0 0 10 10"></path>
<g class="terminal">
<path d="M178 151h0"></path>
<path d="M238 151h40"></path>
<rect x="178" y="140" width="60" height="22" rx="10" ry="10"></rect>
<text x="208" y="155">"ANY"</text>
</g>
<path d="M278 151a10 10 0 0 0 10 -10v-100a10 10 0 0 1 10 -10"></path>
</g>
<path d="M298 31h10"></path>
<g class="terminal">
<path d="M308 31h0"></path>
<path d="M384 31h0"></path>
<rect x="308" y="20" width="76" height="22" rx="10" ry="10"></rect>
<text x="346" y="35">"TABLE"</text>
</g>
</g>
<path d="M1046 31h20"></path>
<path d="M138 31a10 10 0 0 1 10 10v139a10 10 0 0 0 10 10"></path>
<g>
<path d="M158 190h0"></path>
<path d="M1046 190h0"></path>
<g>
<path d="M158 190h0"></path>
<path d="M660 190h0"></path>
<path d="M158 190h20"></path>
<g>
<path d="M178 190h0"></path>
<path d="M640 190h0"></path>
<g>
<path d="M178 190h0"></path>
<path d="M516 190h0"></path>
<path d="M178 190a10 10 0 0 0 10 -10v0a10 10 0 0 1 10 -10"></path>
<g>
<path d="M198 170h298"></path>
</g>
<path d="M496 170a10 10 0 0 1 10 10v0a10 10 0 0 0 10 10"></path>
<path d="M178 190h20"></path>
<g>
<path d="M198 190h0"></path>
<path d="M496 190h0"></path>
<g>
<path d="M198 190h0"></path>
<path d="M424 190h0"></path>
<g>
<path d="M198 190h0"></path>
<path d="M338 190h0"></path>
<path d="M198 190h20"></path>
<g class="terminal">
<path d="M218 190h0"></path>
<path d="M318 190h0"></path>
<rect x="218" y="179" width="100" height="22" rx="10" ry="10"></rect>
<text x="268" y="194">"STANDARD"</text>
</g>
<path d="M318 190h20"></path>
<path d="M198 190a10 10 0 0 1 10 10v10a10 10 0 0 0 10 10"></path>
<g class="terminal">
<path d="M218 220h0"></path>
<path d="M302 220h16"></path>
<rect x="218" y="209" width="84" height="22" rx="10" ry="10"></rect>
<text x="260" y="224">"HASHED"</text>
</g>
<path d="M318 220a10 10 0 0 0 10 -10v-10a10 10 0 0 1 10 -10"></path>
<path d="M198 190a10 10 0 0 1 10 10v40a10 10 0 0 0 10 10"></path>
<g class="terminal">
<path d="M218 250h0"></path>
<path d="M294 250h24"></path>
<rect x="218" y="239" width="76" height="22" rx="10" ry="10"></rect>
<text x="256" y="254">"INDEX"</text>
</g>
<path d="M318 250a10 10 0 0 0 10 -10v-40a10 10 0 0 1 10 -10"></path>
<path d="M198 190a10 10 0 0 1 10 10v70a10 10 0 0 0 10 10"></path>
<g class="terminal">
<path d="M218 280h0"></path>
<path d="M302 280h16"></path>
<rect x="218" y="269" width="84" height="22" rx="10" ry="10"></rect>
<text x="260" y="284">"SORTED"</text>
</g>
<path d="M318 280a10 10 0 0 0 10 -10v-70a10 10 0 0 1 10 -10"></path>
<path d="M198 190a10 10 0 0 1 10 10v100a10 10 0 0 0 10 10"></path>
<g class="terminal">
<path d="M218 310h0"></path>
<path d="M278 310h40"></path>
<rect x="218" y="299" width="60" height="22" rx="10" ry="10"></rect>
<text x="248" y="314">"ANY"</text>
</g>
<path d="M318 310a10 10 0 0 0 10 -10v-100a10 10 0 0 1 10 -10"></path>
</g>
<path d="M338 190h10"></path>
<g class="terminal">
<path d="M348 190h0"></path>
<path d="M424 190h0"></path>
<rect x="348" y="179" width="76" height="22" rx="10" ry="10"></rect>
<text x="386" y="194">"TABLE"</text>
</g>
</g>
<path d="M424 190h10"></path>
<path d="M434 190h10"></path>
<g class="terminal">
<path d="M444 190h0"></path>
<path d="M496 190h0"></path>
<rect x="444" y="179" width="52" height="22" rx="10" ry="10"></rect>
<text x="470" y="194">"OF"</text>
</g>
</g>
<path d="M496 190h20"></path>
</g>
<g>
<path d="M516 190h0"></path>
<path d="M640 190h0"></path>
<path d="M516 190a10 10 0 0 0 10 -10v0a10 10 0 0 1 10 -10"></path>
<g>
<path d="M536 170h84"></path>
</g>
<path d="M620 170a10 10 0 0 1 10 10v0a10 10 0 0 0 10 10"></path>
<path d="M516 190h20"></path>
<g class="terminal">
<path d="M536 190h0"></path>
<path d="M620 190h0"></path>
<rect x="536" y="179" width="84" height="22" rx="10" ry="10"></rect>
<text x="578" y="194">"REF TO"</text>
</g>
<path d="M620 190h20"></path>
</g>
</g>
<path d="M640 190h20"></path>
<path d="M158 190a10 10 0 0 1 10 10v130a10 10 0 0 0 10 10"></path>
<g class="terminal">
<path d="M178 340h0"></path>
<path d="M270 340h370"></path>
<rect x="178" y="329" width="92" height="22" rx="10" ry="10"></rect>
<text x="224" y="344">"LINE OF"</text>
</g>
<path d="M640 340a10 10 0 0 0 10 -10v-130a10 10 0 0 1 10 -10"></path>
</g>
<path d="M660 190h10"></path>
<g class="non-terminal">
<path d="M670 190h0"></path>
<path d="M754 190h0"></path>
<rect x="670" y="179" width="84" height="22"></rect>
<a xlink:href="reuse_typename.svg"><text x="712" y="194">TypeName</text>
</a>
</g>
<path d="M754 190h10"></path>
<g>
<path d="M764 190h0"></path>
<path d="M1046 190h0"></path>
<path d="M764 190a10 10 0 0 0 10 -10v0a10 10 0 0 1 10 -10"></path>
<g>
<path d="M784 170h242"></path>
</g>
<path d="M1026 170a10 10 0 0 1 10 10v0a10 10 0 0 0 10 10"></path>
<path d="M764 190h20"></path>
<g>
<path d="M784 190h0"></path>
<path d="M1026 190h0"></path>
<g class="terminal">
<path d="M784 190h0"></path>
<path d="M876 190h0"></path>
<rect x="784" y="179" width="92" height="22" rx="10" ry="10"></rect>
<text x="830" y="194">"DEFAULT"</text>
</g>
<path d="M876 190h10"></path>
<g>
<path d="M886 190h0"></path>
<path d="M1026 190h0"></path>
<path d="M886 190h20"></path>
<g class="non-terminal">
<path d="M906 190h0"></path>
<path d="M990 190h16"></path>
<rect x="906" y="179" width="84" height="22"></rect>
<a xlink:href="reuse_constant.svg"><text x="948" y="194">Constant</text>
</a>
</g>
<path d="M1006 190h20"></path>
<path d="M886 190a10 10 0 0 1 10 10v10a10 10 0 0 0 10 10"></path>
<g class="non-terminal">
<path d="M906 220h0"></path>
<path d="M1006 220h0"></path>
<rect x="906" y="209" width="100" height="22"></rect>
<a xlink:href="reuse_fieldchain.svg"><text x="956" y="224">FieldChain</text>
</a>
</g>
<path d="M1006 220a10 10 0 0 0 10 -10v-10a10 10 0 0 1 10 -10"></path>
</g>
</g>
<path d="M1026 190h20"></path>
</g>
</g>
<path d="M1046 190a10 10 0 0 0 10 -10v-139a10 10 0 0 1 10 -10"></path>
</g>
</g>
<path d="M1066 31h20"></path>
<path d="M40 31a10 10 0 0 1 10 10v319a10 10 0 0 0 10 10"></path>
<g>
<path d="M60 370h0"></path>
<path d="M248 370h818"></path>
<g class="terminal">
<path d="M60 370h0"></path>
<path d="M128 370h0"></path>
<rect x="60" y="359" width="68" height="22" rx="10" ry="10"></rect>
<text x="94" y="374">"LIKE"</text>
</g>
<path d="M128 370h10"></path>
<path d="M138 370h10"></path>
<g class="non-terminal">
<path d="M148 370h0"></path>
<path d="M248 370h0"></path>
<rect x="148" y="359" width="100" height="22"></rect>
<a xlink:href="reuse_fieldchain.svg"><text x="198" y="374">FieldChain</text>
</a>
</g>
</g>
<path d="M1066 370a10 10 0 0 0 10 -10v-319a10 10 0 0 1 10 -10"></path>
</g>
<path d="M 1086 31 h 20 m 0 -10 v 20"></path>
</g>
</svg>
