<svg xmlns="http://www.w3.org/2000/svg" xmlns:xlink="http://www.w3.org/1999/xlink" class="railroad-diagram" width="1992" height="635" viewBox="0 0 1992 635">
<defs>
<style type="text/css"><![CDATA[
path {
stroke-width: 3;
stroke: black;
fill: rgba(0,0,0,0);
}
text {
font: bold 14px monospace;
text-anchor: middle;
}
text.diagram-text {
font-size: 12px;
}
a {
fill: blue;
}
text.diagram-arrow {
font-size: 16px;
}
text.label {
text-anchor: start;
}
text.comment {
font: italic 12px monospace;
}
rect {
stroke-width: 3;
stroke: black;
fill: #BCBCBC;
}
path.diagram-text {
stroke-width: 3;
stroke: black;
fill: #BCBCBC;
cursor: help;
}
]]></style>
</defs>
<g transform="translate(.5 .5)">
<path d="M 20 30 v 20 m 0 -10 h 20.5"></path>
<path d="M40 40h10"></path>
<g>
<path d="M50 40h0"></path>
<path d="M1942 40h0"></path>
<g class="terminal">
<path d="M50 40h0"></path>
<path d="M134 40h0"></path>
<rect x="50" y="29" width="84" height="22" rx="10" ry="10"></rect>
<text x="92" y="44">"SELECT"</text>
</g>
<path d="M134 40h10"></path>
<g>
<path d="M144 40h0"></path>
<path d="M474 40h0"></path>
<path d="M144 40h20"></path>
<g class="terminal">
<path d="M164 40h0"></path>
<path d="M264 40h190"></path>
<rect x="164" y="29" width="100" height="22" rx="10" ry="10"></rect>
<text x="214" y="44">"DISTINCT"</text>
</g>
<path d="M454 40h20"></path>
<path d="M144 40a10 10 0 0 1 10 10v27a10 10 0 0 0 10 10"></path>
<g>
<path d="M164 87h0"></path>
<path d="M454 87h0"></path>
<path d="M164 87a10 10 0 0 0 10 -10v-8a10 10 0 0 1 10 -10"></path>
<g>
<path d="M184 59h250"></path>
</g>
<path d="M434 59a10 10 0 0 1 10 10v8a10 10 0 0 0 10 10"></path>
<path d="M164 87h20"></path>
<g>
<path d="M184 87h0"></path>
<path d="M434 87h0"></path>
<g class="terminal">
<path d="M184 87h0"></path>
<path d="M268 87h0"></path>
<rect x="184" y="76" width="84" height="22" rx="10" ry="10"></rect>
<text x="226" y="91">"SINGLE"</text>
</g>
<path d="M268 87h10"></path>
<g>
<path d="M278 87h0"></path>
<path d="M434 87h0"></path>
<path d="M278 87a10 10 0 0 0 10 -10v0a10 10 0 0 1 10 -10"></path>
<g>
<path d="M298 67h116"></path>
</g>
<path d="M414 67a10 10 0 0 1 10 10v0a10 10 0 0 0 10 10"></path>
<path d="M278 87h20"></path>
<g class="terminal">
<path d="M298 87h0"></path>
<path d="M414 87h0"></path>
<rect x="298" y="76" width="116" height="22" rx="10" ry="10"></rect>
<text x="356" y="91">"FOR UPDATE"</text>
</g>
<path d="M414 87h20"></path>
</g>
</g>
<path d="M434 87h20"></path>
</g>
<path d="M454 87a10 10 0 0 0 10 -10v-27a10 10 0 0 1 10 -10"></path>
</g>
<g>
<path d="M474 40h0"></path>
<path d="M1054 40h0"></path>
<path d="M474 40h20"></path>
<g class="terminal">
<path d="M494 40h0"></path>
<path d="M538 40h496"></path>
<rect x="494" y="29" width="44" height="22" rx="10" ry="10"></rect>
<text x="516" y="44">"&#42;"</text>
</g>
<path d="M1034 40h20"></path>
<path d="M474 40a10 10 0 0 1 10 10v10a10 10 0 0 0 10 10"></path>
<g class="non-terminal">
<path d="M494 70h0"></path>
<path d="M570 70h464"></path>
<rect x="494" y="59" width="76" height="22"></rect>
<a xlink:href="reuse_dynamic.svg"><text x="532" y="74">Dynamic</text>
</a>
</g>
<path d="M1034 70a10 10 0 0 0 10 -10v-10a10 10 0 0 1 10 -10"></path>
<path d="M474 40a10 10 0 0 1 10 10v49a10 10 0 0 0 10 10"></path>
<g>
<path d="M494 109h0"></path>
<path d="M1034 109h0"></path>
<path d="M494 109h10"></path>
<g>
<path d="M504 109h0"></path>
<path d="M1024 109h0"></path>
<path d="M504 109h20"></path>
<g>
<path d="M524 109h0"></path>
<path d="M764 109h240"></path>
<g class="non-terminal">
<path d="M524 109h0"></path>
<path d="M584 109h0"></path>
<rect x="524" y="98" width="60" height="22"></rect>
<a xlink:href="reuse_field.svg"><text x="554" y="113">Field</text>
</a>
</g>
<path d="M584 109h10"></path>
<g>
<path d="M594 109h0"></path>
<path d="M764 109h0"></path>
<path d="M594 109a10 10 0 0 0 10 -10v0a10 10 0 0 1 10 -10"></path>
<g>
<path d="M614 89h130"></path>
</g>
<path d="M744 89a10 10 0 0 1 10 10v0a10 10 0 0 0 10 10"></path>
<path d="M594 109h20"></path>
<g>
<path d="M614 109h0"></path>
<path d="M744 109h0"></path>
<g>
<path d="M614 109h0"></path>
<path d="M680 109h0"></path>
<text x="647" y="114" class="comment">v740sp05</text>
</g>
<path d="M680 109h10"></path>
<path d="M690 109h10"></path>
<g class="terminal">
<path d="M700 109h0"></path>
<path d="M744 109h0"></path>
<rect x="700" y="98" width="44" height="22" rx="10" ry="10"></rect>
<text x="722" y="113">","</text>
</g>
</g>
<path d="M744 109h20"></path>
</g>
</g>
<path d="M1004 109h20"></path>
<path d="M504 109a10 10 0 0 1 10 10v19a10 10 0 0 0 10 10"></path>
<g>
<path d="M524 148h0"></path>
<path d="M1004 148h0"></path>
<g class="terminal">
<path d="M524 148h0"></path>
<path d="M600 148h0"></path>
<rect x="524" y="137" width="76" height="22" rx="10" ry="10"></rect>
<text x="562" y="152">"COUNT"</text>
</g>
<path d="M600 148h10"></path>
<g>
<path d="M610 148h0"></path>
<path d="M710 148h0"></path>
<path d="M610 148h20"></path>
<g class="terminal">
<path d="M630 148h0"></path>
<path d="M682 148h8"></path>
<rect x="630" y="137" width="52" height="22" rx="10" ry="10"></rect>
<text x="656" y="152">!"("</text>
</g>
<path d="M690 148h20"></path>
<path d="M610 148a10 10 0 0 1 10 10v10a10 10 0 0 0 10 10"></path>
<g class="terminal">
<path d="M630 178h0"></path>
<path d="M690 178h0"></path>
<rect x="630" y="167" width="60" height="22" rx="10" ry="10"></rect>
<text x="660" y="182">!"( "</text>
</g>
<path d="M690 178a10 10 0 0 0 10 -10v-10a10 10 0 0 1 10 -10"></path>
</g>
<g>
<path d="M710 148h0"></path>
<path d="M850 148h0"></path>
<path d="M710 148a10 10 0 0 0 10 -10v0a10 10 0 0 1 10 -10"></path>
<g>
<path d="M730 128h100"></path>
</g>
<path d="M830 128a10 10 0 0 1 10 10v0a10 10 0 0 0 10 10"></path>
<path d="M710 148h20"></path>
<g class="terminal">
<path d="M730 148h0"></path>
<path d="M830 148h0"></path>
<rect x="730" y="137" width="100" height="22" rx="10" ry="10"></rect>
<text x="780" y="152">"DISTINCT"</text>
</g>
<path d="M830 148h20"></path>
</g>
<g>
<path d="M850 148h0"></path>
<path d="M950 148h0"></path>
<path d="M850 148h20"></path>
<g class="terminal">
<path d="M870 148h0"></path>
<path d="M914 148h16"></path>
<rect x="870" y="137" width="44" height="22" rx="10" ry="10"></rect>
<text x="892" y="152">"&#42;"</text>
</g>
<path d="M930 148h20"></path>
<path d="M850 148a10 10 0 0 1 10 10v10a10 10 0 0 0 10 10"></path>
<g class="non-terminal">
<path d="M870 178h0"></path>
<path d="M930 178h0"></path>
<rect x="870" y="167" width="60" height="22"></rect>
<a xlink:href="reuse_field.svg"><text x="900" y="182">Field</text>
</a>
</g>
<path d="M930 178a10 10 0 0 0 10 -10v-10a10 10 0 0 1 10 -10"></path>
</g>
<path d="M950 148h10"></path>
<g class="terminal">
<path d="M960 148h0"></path>
<path d="M1004 148h0"></path>
<rect x="960" y="137" width="44" height="22" rx="10" ry="10"></rect>
<text x="982" y="152">")"</text>
</g>
</g>
<path d="M1004 148a10 10 0 0 0 10 -10v-19a10 10 0 0 1 10 -10"></path>
<path d="M504 109a10 10 0 0 1 10 10v79a10 10 0 0 0 10 10"></path>
<g>
<path d="M524 208h0"></path>
<path d="M828 208h176"></path>
<g class="terminal">
<path d="M524 208h0"></path>
<path d="M584 208h0"></path>
<rect x="524" y="197" width="60" height="22" rx="10" ry="10"></rect>
<text x="554" y="212">"MAX"</text>
</g>
<path d="M584 208h10"></path>
<g>
<path d="M594 208h0"></path>
<path d="M694 208h0"></path>
<path d="M594 208h20"></path>
<g class="terminal">
<path d="M614 208h0"></path>
<path d="M666 208h8"></path>
<rect x="614" y="197" width="52" height="22" rx="10" ry="10"></rect>
<text x="640" y="212">!"("</text>
</g>
<path d="M674 208h20"></path>
<path d="M594 208a10 10 0 0 1 10 10v10a10 10 0 0 0 10 10"></path>
<g class="terminal">
<path d="M614 238h0"></path>
<path d="M674 238h0"></path>
<rect x="614" y="227" width="60" height="22" rx="10" ry="10"></rect>
<text x="644" y="242">!"( "</text>
</g>
<path d="M674 238a10 10 0 0 0 10 -10v-10a10 10 0 0 1 10 -10"></path>
</g>
<path d="M694 208h10"></path>
<g class="non-terminal">
<path d="M704 208h0"></path>
<path d="M764 208h0"></path>
<rect x="704" y="197" width="60" height="22"></rect>
<a xlink:href="reuse_field.svg"><text x="734" y="212">Field</text>
</a>
</g>
<path d="M764 208h10"></path>
<path d="M774 208h10"></path>
<g class="terminal">
<path d="M784 208h0"></path>
<path d="M828 208h0"></path>
<rect x="784" y="197" width="44" height="22" rx="10" ry="10"></rect>
<text x="806" y="212">")"</text>
</g>
</g>
<path d="M1004 208a10 10 0 0 0 10 -10v-79a10 10 0 0 1 10 -10"></path>
<path d="M504 109a10 10 0 0 1 10 10v139a10 10 0 0 0 10 10"></path>
<g>
<path d="M524 268h0"></path>
<path d="M828 268h176"></path>
<g class="terminal">
<path d="M524 268h0"></path>
<path d="M584 268h0"></path>
<rect x="524" y="257" width="60" height="22" rx="10" ry="10"></rect>
<text x="554" y="272">"MIN"</text>
</g>
<path d="M584 268h10"></path>
<g>
<path d="M594 268h0"></path>
<path d="M694 268h0"></path>
<path d="M594 268h20"></path>
<g class="terminal">
<path d="M614 268h0"></path>
<path d="M666 268h8"></path>
<rect x="614" y="257" width="52" height="22" rx="10" ry="10"></rect>
<text x="640" y="272">!"("</text>
</g>
<path d="M674 268h20"></path>
<path d="M594 268a10 10 0 0 1 10 10v10a10 10 0 0 0 10 10"></path>
<g class="terminal">
<path d="M614 298h0"></path>
<path d="M674 298h0"></path>
<rect x="614" y="287" width="60" height="22" rx="10" ry="10"></rect>
<text x="644" y="302">!"( "</text>
</g>
<path d="M674 298a10 10 0 0 0 10 -10v-10a10 10 0 0 1 10 -10"></path>
</g>
<path d="M694 268h10"></path>
<g class="non-terminal">
<path d="M704 268h0"></path>
<path d="M764 268h0"></path>
<rect x="704" y="257" width="60" height="22"></rect>
<a xlink:href="reuse_field.svg"><text x="734" y="272">Field</text>
</a>
</g>
<path d="M764 268h10"></path>
<path d="M774 268h10"></path>
<g class="terminal">
<path d="M784 268h0"></path>
<path d="M828 268h0"></path>
<rect x="784" y="257" width="44" height="22" rx="10" ry="10"></rect>
<text x="806" y="272">")"</text>
</g>
</g>
<path d="M1004 268a10 10 0 0 0 10 -10v-139a10 10 0 0 1 10 -10"></path>
<path d="M504 109a10 10 0 0 1 10 10v199a10 10 0 0 0 10 10"></path>
<g>
<path d="M524 328h0"></path>
<path d="M828 328h176"></path>
<g class="terminal">
<path d="M524 328h0"></path>
<path d="M584 328h0"></path>
<rect x="524" y="317" width="60" height="22" rx="10" ry="10"></rect>
<text x="554" y="332">"SUM"</text>
</g>
<path d="M584 328h10"></path>
<g>
<path d="M594 328h0"></path>
<path d="M694 328h0"></path>
<path d="M594 328h20"></path>
<g class="terminal">
<path d="M614 328h0"></path>
<path d="M666 328h8"></path>
<rect x="614" y="317" width="52" height="22" rx="10" ry="10"></rect>
<text x="640" y="332">!"("</text>
</g>
<path d="M674 328h20"></path>
<path d="M594 328a10 10 0 0 1 10 10v10a10 10 0 0 0 10 10"></path>
<g class="terminal">
<path d="M614 358h0"></path>
<path d="M674 358h0"></path>
<rect x="614" y="347" width="60" height="22" rx="10" ry="10"></rect>
<text x="644" y="362">!"( "</text>
</g>
<path d="M674 358a10 10 0 0 0 10 -10v-10a10 10 0 0 1 10 -10"></path>
</g>
<path d="M694 328h10"></path>
<g class="non-terminal">
<path d="M704 328h0"></path>
<path d="M764 328h0"></path>
<rect x="704" y="317" width="60" height="22"></rect>
<a xlink:href="reuse_field.svg"><text x="734" y="332">Field</text>
</a>
</g>
<path d="M764 328h10"></path>
<path d="M774 328h10"></path>
<g class="terminal">
<path d="M784 328h0"></path>
<path d="M828 328h0"></path>
<rect x="784" y="317" width="44" height="22" rx="10" ry="10"></rect>
<text x="806" y="332">")"</text>
</g>
</g>
<path d="M1004 328a10 10 0 0 0 10 -10v-199a10 10 0 0 1 10 -10"></path>
</g>
<path d="M1024 109h10"></path>
<path d="M504 109a10 10 0 0 0 -10 10v248a10 10 0 0 0 10 10"></path>
<g>
<path d="M504 377h520"></path>
</g>
<path d="M1024 377a10 10 0 0 0 10 -10v-248a10 10 0 0 0 -10 -10"></path>
</g>
<path d="M1034 109a10 10 0 0 0 10 -10v-49a10 10 0 0 1 10 -10"></path>
</g>
<path d="M1054 40h10"></path>
<g>
<path d="M1064 40h0"></path>
<path d="M1942 40h0"></path>
<path d="M1094 40h10"></path>
<g>
<path d="M1104 40h0"></path>
<path d="M1880 40h32"></path>
<g>
<path d="M1104 40h0"></path>
<path d="M1626 40h0"></path>
<g class="terminal">
<path d="M1104 40h0"></path>
<path d="M1172 40h0"></path>
<rect x="1104" y="29" width="68" height="22" rx="10" ry="10"></rect>
<text x="1138" y="44">"FROM"</text>
</g>
<path d="M1172 40h10"></path>
<g>
<path d="M1182 40h0"></path>
<path d="M1290 40h0"></path>
<path d="M1182 40a10 10 0 0 0 10 -10v0a10 10 0 0 1 10 -10"></path>
<g>
<path d="M1202 20h68"></path>
</g>
<path d="M1270 20a10 10 0 0 1 10 10v0a10 10 0 0 0 10 10"></path>
<path d="M1182 40h20"></path>
<g class="terminal">
<path d="M1202 40h0"></path>
<path d="M1270 40h0"></path>
<rect x="1202" y="29" width="68" height="22" rx="10" ry="10"></rect>
<text x="1236" y="44">!" ( "</text>
</g>
<path d="M1270 40h20"></path>
</g>
<g>
<path d="M1290 40h0"></path>
<path d="M1454 40h0"></path>
<path d="M1290 40h20"></path>
<g class="non-terminal">
<path d="M1310 40h0"></path>
<path d="M1386 40h48"></path>
<rect x="1310" y="29" width="76" height="22"></rect>
<a xlink:href="reuse_dynamic.svg"><text x="1348" y="44">Dynamic</text>
</a>
</g>
<path d="M1434 40h20"></path>
<path d="M1290 40a10 10 0 0 1 10 10v10a10 10 0 0 0 10 10"></path>
<g class="non-terminal">
<path d="M1310 70h0"></path>
<path d="M1434 70h0"></path>
<rect x="1310" y="59" width="124" height="22"></rect>
<a xlink:href="reuse_databasetable.svg"><text x="1372" y="74">DatabaseTable</text>
</a>
</g>
<path d="M1434 70a10 10 0 0 0 10 -10v-10a10 10 0 0 1 10 -10"></path>
</g>
<g>
<path d="M1454 40h0"></path>
<path d="M1626 40h0"></path>
<path d="M1454 40a10 10 0 0 0 10 -10v0a10 10 0 0 1 10 -10"></path>
<g>
<path d="M1474 20h132"></path>
</g>
<path d="M1606 20a10 10 0 0 1 10 10v0a10 10 0 0 0 10 10"></path>
<path d="M1454 40h20"></path>
<g>
<path d="M1474 40h0"></path>
<path d="M1606 40h0"></path>
<g class="terminal">
<path d="M1474 40h0"></path>
<path d="M1526 40h0"></path>
<rect x="1474" y="29" width="52" height="22" rx="10" ry="10"></rect>
<text x="1500" y="44">"AS"</text>
</g>
<path d="M1526 40h10"></path>
<path d="M1536 40h10"></path>
<g class="non-terminal">
<path d="M1546 40h0"></path>
<path d="M1606 40h0"></path>
<rect x="1546" y="29" width="60" height="22"></rect>
<a xlink:href="reuse_field.svg"><text x="1576" y="44">Field</text>
</a>
</g>
</g>
<path d="M1606 40h20"></path>
</g>
</g>
<path d="M1626 40h10"></path>
<g>
<path d="M1636 40h0"></path>
<path d="M1772 40h0"></path>
<path d="M1636 40a10 10 0 0 0 10 -10v0a10 10 0 0 1 10 -10"></path>
<g>
<path d="M1656 20h96"></path>
</g>
<path d="M1752 20a10 10 0 0 1 10 10v0a10 10 0 0 0 10 10"></path>
<path d="M1636 40h20"></path>
<g>
<path d="M1656 40h0"></path>
<path d="M1752 40h0"></path>
<path d="M1656 40h10"></path>
<g class="non-terminal">
<path d="M1666 40h0"></path>
<path d="M1742 40h0"></path>
<rect x="1666" y="29" width="76" height="22"></rect>
<a xlink:href="reuse_sqljoin.svg"><text x="1704" y="44">SQLJoin</text>
</a>
</g>
<path d="M1742 40h10"></path>
<path d="M1666 40a10 10 0 0 0 -10 10v0a10 10 0 0 0 10 10"></path>
<g>
<path d="M1666 60h76"></path>
</g>
<path d="M1742 60a10 10 0 0 0 10 -10v0a10 10 0 0 0 -10 -10"></path>
</g>
<path d="M1752 40h20"></path>
</g>
<g>
<path d="M1772 40h0"></path>
<path d="M1880 40h0"></path>
<path d="M1772 40a10 10 0 0 0 10 -10v0a10 10 0 0 1 10 -10"></path>
<g>
<path d="M1792 20h68"></path>
</g>
<path d="M1860 20a10 10 0 0 1 10 10v0a10 10 0 0 0 10 10"></path>
<path d="M1772 40h20"></path>
<g class="terminal">
<path d="M1792 40h0"></path>
<path d="M1860 40h0"></path>
<rect x="1792" y="29" width="68" height="22" rx="10" ry="10"></rect>
<text x="1826" y="44">!" ) "</text>
</g>
<path d="M1860 40h20"></path>
</g>
</g>
<path d="M1912 40h10"></path>
<path d="M1094 40v59a10 10 0 0 0 10 10"></path>
<g>
<path d="M1104 109h0"></path>
<path d="M1912 109h0"></path>
<path d="M1104 109h20"></path>
<g>
<path d="M1124 109h0"></path>
<path d="M1766 109h126"></path>
<g class="terminal">
<path d="M1124 109h0"></path>
<path d="M1192 109h0"></path>
<rect x="1124" y="98" width="68" height="22" rx="10" ry="10"></rect>
<text x="1158" y="113">"INTO"</text>
</g>
<path d="M1192 109h10"></path>
<g>
<path d="M1202 109h0"></path>
<path d="M1766 109h0"></path>
<path d="M1202 109h20"></path>
<g>
<path d="M1222 109h0"></path>
<path d="M1626 109h120"></path>
<g class="terminal">
<path d="M1222 109h0"></path>
<path d="M1282 109h0"></path>
<rect x="1222" y="98" width="60" height="22" rx="10" ry="10"></rect>
<text x="1252" y="113">!" ("</text>
</g>
<path d="M1282 109h10"></path>
<g>
<path d="M1292 109h0"></path>
<path d="M1484 109h0"></path>
<path d="M1292 109a10 10 0 0 0 10 -10v0a10 10 0 0 1 10 -10"></path>
<g>
<path d="M1312 89h152"></path>
</g>
<path d="M1464 89a10 10 0 0 1 10 10v0a10 10 0 0 0 10 10"></path>
<path d="M1292 109h20"></path>
<g>
<path d="M1312 109h0"></path>
<path d="M1464 109h0"></path>
<path d="M1312 109h10"></path>
<g>
<path d="M1322 109h0"></path>
<path d="M1454 109h0"></path>
<g class="non-terminal">
<path d="M1322 109h0"></path>
<path d="M1390 109h0"></path>
<rect x="1322" y="98" width="68" height="22"></rect>
<a xlink:href="reuse_target.svg"><text x="1356" y="113">Target</text>
</a>
</g>
<path d="M1390 109h10"></path>
<path d="M1400 109h10"></path>
<g class="terminal">
<path d="M1410 109h0"></path>
<path d="M1454 109h0"></path>
<rect x="1410" y="98" width="44" height="22" rx="10" ry="10"></rect>
<text x="1432" y="113">","</text>
</g>
</g>
<path d="M1454 109h10"></path>
<path d="M1322 109a10 10 0 0 0 -10 10v0a10 10 0 0 0 10 10"></path>
<g>
<path d="M1322 129h132"></path>
</g>
<path d="M1454 129a10 10 0 0 0 10 -10v0a10 10 0 0 0 -10 -10"></path>
</g>
<path d="M1464 109h20"></path>
</g>
<path d="M1484 109h10"></path>
<g class="non-terminal">
<path d="M1494 109h0"></path>
<path d="M1562 109h0"></path>
<rect x="1494" y="98" width="68" height="22"></rect>
<a xlink:href="reuse_target.svg"><text x="1528" y="113">Target</text>
</a>
</g>
<path d="M1562 109h10"></path>
<path d="M1572 109h10"></path>
<g class="terminal">
<path d="M1582 109h0"></path>
<path d="M1626 109h0"></path>
<rect x="1582" y="98" width="44" height="22" rx="10" ry="10"></rect>
<text x="1604" y="113">")"</text>
</g>
</g>
<path d="M1746 109h20"></path>
<path d="M1202 109a10 10 0 0 1 10 10v28a10 10 0 0 0 10 10"></path>
<g>
<path d="M1222 157h0"></path>
<path d="M1746 157h0"></path>
<g>
<path d="M1222 157h0"></path>
<path d="M1482 157h0"></path>
<path d="M1222 157a10 10 0 0 0 10 -10v0a10 10 0 0 1 10 -10"></path>
<g>
<path d="M1242 137h220"></path>
</g>
<path d="M1462 137a10 10 0 0 1 10 10v0a10 10 0 0 0 10 10"></path>
<path d="M1222 157h20"></path>
<g class="terminal">
<path d="M1242 157h0"></path>
<path d="M1462 157h0"></path>
<rect x="1242" y="146" width="220" height="22" rx="10" ry="10"></rect>
<text x="1352" y="161">"CORRESPONDING FIELDS OF"</text>
</g>
<path d="M1462 157h20"></path>
</g>
<g>
<path d="M1482 157h0"></path>
<path d="M1668 157h0"></path>
<path d="M1482 157a10 10 0 0 0 10 -10v0a10 10 0 0 1 10 -10"></path>
<g>
<path d="M1502 137h146"></path>
</g>
<path d="M1648 137a10 10 0 0 1 10 10v0a10 10 0 0 0 10 10"></path>
<path d="M1482 157h20"></path>
<g>
<path d="M1502 157h0"></path>
<path d="M1648 157h0"></path>
<g>
<path d="M1502 157h0"></path>
<path d="M1568 157h0"></path>
<text x="1535" y="162" class="comment">v740sp05</text>
</g>
<path d="M1568 157h10"></path>
<path d="M1578 157h10"></path>
<g class="terminal">
<path d="M1588 157h0"></path>
<path d="M1648 157h0"></path>
<rect x="1588" y="146" width="60" height="22" rx="10" ry="10"></rect>
<text x="1618" y="161">!" @"</text>
</g>
</g>
<path d="M1648 157h20"></path>
</g>
<path d="M1668 157h10"></path>
<g class="non-terminal">
<path d="M1678 157h0"></path>
<path d="M1746 157h0"></path>
<rect x="1678" y="146" width="68" height="22"></rect>
<a xlink:href="reuse_target.svg"><text x="1712" y="161">Target</text>
</a>
</g>
</g>
<path d="M1746 157a10 10 0 0 0 10 -10v-28a10 10 0 0 1 10 -10"></path>
</g>
</g>
<path d="M1892 109h20"></path>
<path d="M1104 109a10 10 0 0 1 10 10v67a10 10 0 0 0 10 10"></path>
<g>
<path d="M1124 196h0"></path>
<path d="M1892 196h0"></path>
<g>
<path d="M1124 196h0"></path>
<path d="M1272 196h0"></path>
<path d="M1124 196h20"></path>
<g class="terminal">
<path d="M1144 196h0"></path>
<path d="M1212 196h40"></path>
<rect x="1144" y="185" width="68" height="22" rx="10" ry="10"></rect>
<text x="1178" y="200">"INTO"</text>
</g>
<path d="M1252 196h20"></path>
<path d="M1124 196a10 10 0 0 1 10 10v10a10 10 0 0 0 10 10"></path>
<g class="terminal">
<path d="M1144 226h0"></path>
<path d="M1252 226h0"></path>
<rect x="1144" y="215" width="108" height="22" rx="10" ry="10"></rect>
<text x="1198" y="230">"APPENDING"</text>
</g>
<path d="M1252 226a10 10 0 0 0 10 -10v-10a10 10 0 0 1 10 -10"></path>
</g>
<g>
<path d="M1272 196h0"></path>
<path d="M1532 196h0"></path>
<path d="M1272 196a10 10 0 0 0 10 -10v0a10 10 0 0 1 10 -10"></path>
<g>
<path d="M1292 176h220"></path>
</g>
<path d="M1512 176a10 10 0 0 1 10 10v0a10 10 0 0 0 10 10"></path>
<path d="M1272 196h20"></path>
<g class="terminal">
<path d="M1292 196h0"></path>
<path d="M1512 196h0"></path>
<rect x="1292" y="185" width="220" height="22" rx="10" ry="10"></rect>
<text x="1402" y="200">"CORRESPONDING FIELDS OF"</text>
</g>
<path d="M1512 196h20"></path>
</g>
<path d="M1532 196h10"></path>
<g class="terminal">
<path d="M1542 196h0"></path>
<path d="M1618 196h0"></path>
<rect x="1542" y="185" width="76" height="22" rx="10" ry="10"></rect>
<text x="1580" y="200">"TABLE"</text>
</g>
<path d="M1618 196h10"></path>
<g>
<path d="M1628 196h0"></path>
<path d="M1814 196h0"></path>
<path d="M1628 196a10 10 0 0 0 10 -10v0a10 10 0 0 1 10 -10"></path>
<g>
<path d="M1648 176h146"></path>
</g>
<path d="M1794 176a10 10 0 0 1 10 10v0a10 10 0 0 0 10 10"></path>
<path d="M1628 196h20"></path>
<g>
<path d="M1648 196h0"></path>
<path d="M1794 196h0"></path>
<g>
<path d="M1648 196h0"></path>
<path d="M1714 196h0"></path>
<text x="1681" y="201" class="comment">v740sp05</text>
</g>
<path d="M1714 196h10"></path>
<path d="M1724 196h10"></path>
<g class="terminal">
<path d="M1734 196h0"></path>
<path d="M1794 196h0"></path>
<rect x="1734" y="185" width="60" height="22" rx="10" ry="10"></rect>
<text x="1764" y="200">!" @"</text>
</g>
</g>
<path d="M1794 196h20"></path>
</g>
<path d="M1814 196h10"></path>
<g class="non-terminal">
<path d="M1824 196h0"></path>
<path d="M1892 196h0"></path>
<rect x="1824" y="185" width="68" height="22"></rect>
<a xlink:href="reuse_target.svg"><text x="1858" y="200">Target</text>
</a>
</g>
</g>
<path d="M1892 196a10 10 0 0 0 10 -10v-67a10 10 0 0 1 10 -10"></path>
</g>
<path d="M1912 109a10 10 0 0 0 10 -10v-59"></path>
<path d="M1094 40v215a10 10 0 0 0 10 10"></path>
<g>
<path d="M1104 265h0"></path>
<path d="M1558 265h354"></path>
<g class="terminal">
<path d="M1104 265h0"></path>
<path d="M1284 265h0"></path>
<rect x="1104" y="254" width="180" height="22" rx="10" ry="10"></rect>
<text x="1194" y="269">"FOR ALL ENTRIES IN"</text>
</g>
<path d="M1284 265h10"></path>
<g>
<path d="M1294 265h0"></path>
<path d="M1480 265h0"></path>
<path d="M1294 265a10 10 0 0 0 10 -10v0a10 10 0 0 1 10 -10"></path>
<g>
<path d="M1314 245h146"></path>
</g>
<path d="M1460 245a10 10 0 0 1 10 10v0a10 10 0 0 0 10 10"></path>
<path d="M1294 265h20"></path>
<g>
<path d="M1314 265h0"></path>
<path d="M1460 265h0"></path>
<g>
<path d="M1314 265h0"></path>
<path d="M1380 265h0"></path>
<text x="1347" y="270" class="comment">v740sp05</text>
</g>
<path d="M1380 265h10"></path>
<path d="M1390 265h10"></path>
<g class="terminal">
<path d="M1400 265h0"></path>
<path d="M1460 265h0"></path>
<rect x="1400" y="254" width="60" height="22" rx="10" ry="10"></rect>
<text x="1430" y="269">!" @"</text>
</g>
</g>
<path d="M1460 265h20"></path>
</g>
<path d="M1480 265h10"></path>
<g class="non-terminal">
<path d="M1490 265h0"></path>
<path d="M1558 265h0"></path>
<rect x="1490" y="254" width="68" height="22"></rect>
<a xlink:href="reuse_source.svg"><text x="1524" y="269">Source</text>
</a>
</g>
</g>
<path d="M1912 265a10 10 0 0 0 10 -10v-215"></path>
<path d="M1094 40v245a10 10 0 0 0 10 10"></path>
<g>
<path d="M1104 295h0"></path>
<path d="M1276 295h636"></path>
<g class="terminal">
<path d="M1104 295h0"></path>
<path d="M1180 295h0"></path>
<rect x="1104" y="284" width="76" height="22" rx="10" ry="10"></rect>
<text x="1142" y="299">"WHERE"</text>
</g>
<path d="M1180 295h10"></path>
<path d="M1190 295h10"></path>
<g class="non-terminal">
<path d="M1200 295h0"></path>
<path d="M1276 295h0"></path>
<rect x="1200" y="284" width="76" height="22"></rect>
<a xlink:href="reuse_sqlcond.svg"><text x="1238" y="299">SQLCond</text>
</a>
</g>
</g>
<path d="M1912 295a10 10 0 0 0 10 -10v-245"></path>
<path d="M1094 40v275a10 10 0 0 0 10 10"></path>
<g>
<path d="M1104 325h0"></path>
<path d="M1378 325h534"></path>
<g class="terminal">
<path d="M1104 325h0"></path>
<path d="M1204 325h0"></path>
<rect x="1104" y="314" width="100" height="22" rx="10" ry="10"></rect>
<text x="1154" y="329">"ORDER BY"</text>
</g>
<path d="M1204 325h10"></path>
<g>
<path d="M1214 325h0"></path>
<path d="M1378 325h0"></path>
<path d="M1214 325h20"></path>
<g>
<path d="M1234 325h0"></path>
<path d="M1314 325h44"></path>
<path d="M1234 325h10"></path>
<g class="non-terminal">
<path d="M1244 325h0"></path>
<path d="M1304 325h0"></path>
<rect x="1244" y="314" width="60" height="22"></rect>
<a xlink:href="reuse_field.svg"><text x="1274" y="329">Field</text>
</a>
</g>
<path d="M1304 325h10"></path>
<path d="M1244 325a10 10 0 0 0 -10 10v0a10 10 0 0 0 10 10"></path>
<g>
<path d="M1244 345h60"></path>
</g>
<path d="M1304 345a10 10 0 0 0 10 -10v0a10 10 0 0 0 -10 -10"></path>
</g>
<path d="M1358 325h20"></path>
<path d="M1214 325a10 10 0 0 1 10 10v19a10 10 0 0 0 10 10"></path>
<g class="terminal">
<path d="M1234 364h0"></path>
<path d="M1358 364h0"></path>
<rect x="1234" y="353" width="124" height="22" rx="10" ry="10"></rect>
<text x="1296" y="368">"PRIMARY KEY"</text>
</g>
<path d="M1358 364a10 10 0 0 0 10 -10v-19a10 10 0 0 1 10 -10"></path>
<path d="M1214 325a10 10 0 0 1 10 10v49a10 10 0 0 0 10 10"></path>
<g class="non-terminal">
<path d="M1234 394h0"></path>
<path d="M1310 394h48"></path>
<rect x="1234" y="383" width="76" height="22"></rect>
<a xlink:href="reuse_dynamic.svg"><text x="1272" y="398">Dynamic</text>
</a>
</g>
<path d="M1358 394a10 10 0 0 0 10 -10v-49a10 10 0 0 1 10 -10"></path>
</g>
</g>
<path d="M1912 325a10 10 0 0 0 10 -10v-275"></path>
<path d="M1094 40v374a10 10 0 0 0 10 10"></path>
<g>
<path d="M1104 424h0"></path>
<path d="M1356 424h556"></path>
<g class="terminal">
<path d="M1104 424h0"></path>
<path d="M1180 424h0"></path>
<rect x="1104" y="413" width="76" height="22" rx="10" ry="10"></rect>
<text x="1142" y="428">"UP TO"</text>
</g>
<path d="M1180 424h10"></path>
<path d="M1190 424h10"></path>
<g class="non-terminal">
<path d="M1200 424h0"></path>
<path d="M1268 424h0"></path>
<rect x="1200" y="413" width="68" height="22"></rect>
<a xlink:href="reuse_source.svg"><text x="1234" y="428">Source</text>
</a>
</g>
<path d="M1268 424h10"></path>
<path d="M1278 424h10"></path>
<g class="terminal">
<path d="M1288 424h0"></path>
<path d="M1356 424h0"></path>
<rect x="1288" y="413" width="68" height="22" rx="10" ry="10"></rect>
<text x="1322" y="428">"ROWS"</text>
</g>
</g>
<path d="M1912 424a10 10 0 0 0 10 -10v-374"></path>
<path d="M1094 40v404a10 10 0 0 0 10 10"></path>
<g class="terminal">
<path d="M1104 454h0"></path>
<path d="M1268 454h644"></path>
<rect x="1104" y="443" width="164" height="22" rx="10" ry="10"></rect>
<text x="1186" y="458">"CLIENT SPECIFIED"</text>
</g>
<path d="M1912 454a10 10 0 0 0 10 -10v-404"></path>
<path d="M1094 40v434a10 10 0 0 0 10 10"></path>
<g class="terminal">
<path d="M1104 484h0"></path>
<path d="M1268 484h644"></path>
<rect x="1104" y="473" width="164" height="22" rx="10" ry="10"></rect>
<text x="1186" y="488">"BYPASSING BUFFER"</text>
</g>
<path d="M1912 484a10 10 0 0 0 10 -10v-434"></path>
<path d="M1094 40v464a10 10 0 0 0 10 10"></path>
<g>
<path d="M1104 514h0"></path>
<path d="M1324 514h588"></path>
<g class="terminal">
<path d="M1104 514h0"></path>
<path d="M1236 514h0"></path>
<rect x="1104" y="503" width="132" height="22" rx="10" ry="10"></rect>
<text x="1170" y="518">"PACKAGE SIZE"</text>
</g>
<path d="M1236 514h10"></path>
<path d="M1246 514h10"></path>
<g class="non-terminal">
<path d="M1256 514h0"></path>
<path d="M1324 514h0"></path>
<rect x="1256" y="503" width="68" height="22"></rect>
<a xlink:href="reuse_source.svg"><text x="1290" y="518">Source</text>
</a>
</g>
</g>
<path d="M1912 514a10 10 0 0 0 10 -10v-464"></path>
<path d="M1094 40v494a10 10 0 0 0 10 10"></path>
<g>
<path d="M1104 544h0"></path>
<path d="M1330 544h582"></path>
<g class="terminal">
<path d="M1104 544h0"></path>
<path d="M1204 544h0"></path>
<rect x="1104" y="533" width="100" height="22" rx="10" ry="10"></rect>
<text x="1154" y="548">"GROUP BY"</text>
</g>
<path d="M1204 544h10"></path>
<g>
<path d="M1214 544h0"></path>
<path d="M1330 544h0"></path>
<path d="M1214 544h20"></path>
<g class="non-terminal">
<path d="M1234 544h0"></path>
<path d="M1294 544h16"></path>
<rect x="1234" y="533" width="60" height="22"></rect>
<a xlink:href="reuse_field.svg"><text x="1264" y="548">Field</text>
</a>
</g>
<path d="M1310 544h20"></path>
<path d="M1214 544a10 10 0 0 1 10 10v10a10 10 0 0 0 10 10"></path>
<g class="non-terminal">
<path d="M1234 574h0"></path>
<path d="M1310 574h0"></path>
<rect x="1234" y="563" width="76" height="22"></rect>
<a xlink:href="reuse_dynamic.svg"><text x="1272" y="578">Dynamic</text>
</a>
</g>
<path d="M1310 574a10 10 0 0 0 10 -10v-10a10 10 0 0 1 10 -10"></path>
</g>
</g>
<path d="M1912 544a10 10 0 0 0 10 -10v-494"></path>
<path d="M1094 40v554a10 10 0 0 0 10 10"></path>
<g>
<path d="M1104 604h0"></path>
<path d="M1316 604h596"></path>
<g class="terminal">
<path d="M1104 604h0"></path>
<path d="M1220 604h0"></path>
<rect x="1104" y="593" width="116" height="22" rx="10" ry="10"></rect>
<text x="1162" y="608">"CONNECTION"</text>
</g>
<path d="M1220 604h10"></path>
<path d="M1230 604h10"></path>
<g class="non-terminal">
<path d="M1240 604h0"></path>
<path d="M1316 604h0"></path>
<rect x="1240" y="593" width="76" height="22"></rect>
<a xlink:href="reuse_dynamic.svg"><text x="1278" y="608">Dynamic</text>
</a>
</g>
</g>
<path d="M1912 604a10 10 0 0 0 10 -10v-554"></path>
<g class="diagram-text">
<title>take one or more branches, once each, in any order</title>
<path d="M 1094 30 h -26 a 4 4 0 0 0 -4 4 v 12 a 4 4 0 0 0 4 4 h 26 z" class="diagram-text"></path>
<text x="1079" y="44" class="diagram-text">1+</text>
<path d="M 1922 30 h 16 a 4 4 0 0 1 4 4 v 12 a 4 4 0 0 1 -4 4 h -16 z" class="diagram-text"></path>
<path d="M 1929 38 a 4 4 0 1 0 6 -1 m 2.75 -1 h -4 v 4 m 0 -3 h 2" style="stroke-width: 1.75"></path>
</g>
</g>
</g>
<path d="M1942 40h10"></path>
<path d="M 1952 40 h 20 m 0 -10 v 20"></path>
</g>
</svg>
